<?xml version="1.0" encoding="UTF-8" standalone="no"?>
<!-- Created with Inkscape (http://www.inkscape.org/) -->

<svg
   xmlns:dc="http://purl.org/dc/elements/1.1/"
   xmlns:cc="http://creativecommons.org/ns#"
   xmlns:rdf="http://www.w3.org/1999/02/22-rdf-syntax-ns#"
   xmlns:svg="http://www.w3.org/2000/svg"
   xmlns="http://www.w3.org/2000/svg"
   xmlns:xlink="http://www.w3.org/1999/xlink"
   xmlns:sodipodi="http://sodipodi.sourceforge.net/DTD/sodipodi-0.dtd"
   xmlns:inkscape="http://www.inkscape.org/namespaces/inkscape"
   width="210mm"
   height="297mm"
   id="svg2986"
   version="1.1"
   inkscape:version="0.48.3.1 r9886"
   sodipodi:docname="N-logo_in-use.pdf">
  <defs
     id="defs3">
    <marker
       inkscape:stockid="Arrow1Lend"
       orient="auto"
       refY="0.0"
       refX="0.0"
       id="Arrow1Lend"
       style="overflow:visible;">
      <path
         id="path4026"
         d="M 0.0,0.0 L 5.0,-5.0 L -12.5,0.0 L 5.0,5.0 L 0.0,0.0 z "
         style="fill-rule:evenodd;stroke:#000000;stroke-width:1.0pt;"
         transform="scale(0.8) rotate(180) translate(12.5,0)" />
    </marker>
  </defs>
  <sodipodi:namedview
     inkscape:document-units="mm"
     id="base"
     pagecolor="#ffffff"
     bordercolor="#666666"
     borderopacity="1.0"
     inkscape:pageopacity="1"
     inkscape:pageshadow="2"
     inkscape:zoom="0.5368874"
     inkscape:cx="473.17285"
     inkscape:cy="627.76288"
     inkscape:current-layer="layer1"
     showgrid="false"
     units="mm"
     inkscape:window-width="1280"
     inkscape:window-height="751"
     inkscape:window-x="0"
     inkscape:window-y="29"
     inkscape:window-maximized="1" />
  <metadata
     id="metadata4">
    <rdf:RDF>
      <cc:Work
         rdf:about="">
        <dc:format>image/svg+xml</dc:format>
        <dc:type
           rdf:resource="http://purl.org/dc/dcmitype/StillImage" />
        <dc:title></dc:title>
      </cc:Work>
    </rdf:RDF>
  </metadata>
  <g
     inkscape:label="Layer 1"
     inkscape:groupmode="layer"
     id="layer1">
    <g
       transform="matrix(0.49848006,0,0,0.49848006,232.28429,34.382178)"
       style="fill:#bdbebd;fill-opacity:1;display:inline"
       inkscape:label="N"
       id="layer4">
      <path
         sodipodi:nodetypes="ccccccccccccc"
         inkscape:connector-curvature="0"
         id="path3006-3-9-2"
         d="m 173.75559,60.09395 31.00992,53.14923 -153.429699,265.74803 81.829159,10e-6 112.51511,-194.88189 112.20055,194.89051 20.7812,0 -30.69527,-53.15823 153.42969,-265.74803 -81.82918,0 L 307.05196,254.97547 194.53684,60.09395 z"
         style="fill:#bdbebd;fill-opacity:1;stroke:none;display:inline" />
    </g>
    <g
       transform="matrix(0.25762891,0,0,0.25762891,100.34316,389.3074)"
       style="display:inline"
       inkscape:label="novena"
       id="layer4-5">
      <path
         sodipodi:nodetypes="ccccccccccccc"
         inkscape:connector-curvature="0"
         id="path3006-3-9-2-2"
         d="m 184.50893,2.09395 31.00992,53.14923 -153.429703,265.74803 81.829163,10e-6 112.51511,-194.88189 112.20055,194.89051 20.7812,0 -30.69527,-53.15823 153.42969,-265.74803 -81.82918,0 L 317.8053,196.97547 205.29018,2.09395 z"
         style="fill:#000000;fill-opacity:1;stroke:none;display:inline" />
      <g
         id="text3918-1"
         style="font-size:19.56624794px;font-style:normal;font-variant:normal;font-weight:normal;font-stretch:normal;text-align:center;line-height:110.00000238%;letter-spacing:4.89156199px;word-spacing:0px;writing-mode:lr-tb;text-anchor:middle;fill:#000000;fill-opacity:1;stroke:none;display:inline;font-family:Open Sans;-inkscape-font-specification:Open Sans">
        <path
           id="path3097"
           style="font-size:128.49867249px;font-family:Montserrat;-inkscape-font-specification:Montserrat"
           d="m 48.135601,420.34565 0,37.00762 -14.391851,0 0,-68.36129 14.391851,0 0,12.46437 c 2.312949,-4.19756 5.48258,-7.49569 9.508902,-9.8944 4.111919,-2.39857 8.523703,-3.59789 13.235363,-3.59796 7.709866,7e-5 13.920628,2.35587 18.632308,7.06743 4.797213,4.71167 7.195852,11.52209 7.195926,20.43128 l 0,41.89057 -14.391852,0 0,-37.52161 c -5.9e-5,-12.59282 -5.225666,-18.88925 -15.676838,-18.88931 -4.968653,6e-5 -9.294771,1.67054 -12.978366,5.01145 -3.683655,3.25535 -5.525467,8.05263 -5.525443,14.39185"
           inkscape:connector-curvature="0" />
        <path
           id="path3099"
           style="font-size:128.49867249px;font-family:Montserrat;-inkscape-font-specification:Montserrat"
           d="m 137.64154,439.36346 c 4.11192,4.11197 9.2947,6.16795 15.54834,6.16793 6.25355,2e-5 11.39349,-2.05596 15.41984,-6.16793 4.11189,-4.1976 6.16787,-9.59454 6.16793,-16.19084 -6e-5,-6.59622 -2.05604,-11.95033 -6.16793,-16.06233 -4.02635,-4.19757 -9.16629,-6.29638 -15.41984,-6.29643 -6.25364,5e-5 -11.43642,2.09886 -15.54834,6.29643 -4.02632,4.112 -6.03946,9.46611 -6.03944,16.06233 -2e-5,6.5963 2.01312,11.99324 6.03944,16.19084 m 41.24807,8.86641 c -6.85332,6.76759 -15.41989,10.15139 -25.69973,10.15139 -10.27993,0 -18.8465,-3.3838 -25.69974,-10.15139 -6.85327,-6.85325 -10.2799,-15.20566 -10.27989,-25.05725 -1e-5,-9.85152 3.42662,-18.16109 10.27989,-24.92874 6.85324,-6.85319 15.41981,-10.27982 25.69974,-10.27989 10.27984,7e-5 18.84641,3.4267 25.69973,10.27989 6.85319,6.76765 10.27982,15.07722 10.27989,24.92874 -7e-5,9.85159 -3.4267,18.204 -10.27989,25.05725"
           inkscape:connector-curvature="0" />
        <path
           id="path3101"
           style="font-size:128.49867249px;font-family:Montserrat;-inkscape-font-specification:Montserrat"
           d="m 227.28801,457.35327 -27.49871,-68.36129 14.90584,0 20.81679,51.65646 20.81678,-51.65646 14.90585,0 -27.49872,68.36129 -16.44783,0"
           inkscape:connector-curvature="0" />
        <path
           id="path3103"
           style="font-size:128.49867249px;font-family:Montserrat;-inkscape-font-specification:Montserrat"
           d="m 351.20347,429.46906 -53.58395,0 c 0.34264,4.96864 2.61278,8.99493 6.81043,12.07887 4.19759,2.99832 8.99487,4.49747 14.39185,4.49746 8.56653,10e-6 15.07712,-2.69846 19.5318,-8.09542 l 8.22392,8.99491 c -7.36732,7.62426 -16.96188,11.43638 -28.78371,11.43638 -9.5946,0 -17.77567,-3.16963 -24.54324,-9.5089 -6.68194,-6.42492 -10.02291,-14.99149 -10.0229,-25.69974 -10e-6,-10.79384 3.42662,-19.36041 10.27989,-25.69973 6.85324,-6.3392 14.90582,-9.50883 24.15775,-9.5089 9.33752,7e-5 17.2616,2.82704 23.77226,8.48091 6.51053,5.56833 9.76582,13.27824 9.7659,23.12976 l 0,9.8944 m -53.58395,-11.30788 39.1921,0 c -6e-5,-5.73957 -1.79904,-10.15135 -5.39695,-13.23537 -3.59801,-3.08391 -8.05263,-4.62589 -13.36386,-4.62595 -5.22565,6e-5 -9.93726,1.62771 -14.13485,4.88295 -4.19765,3.16968 -6.29646,7.4958 -6.29644,12.97837"
           inkscape:connector-curvature="0" />
        <path
           id="path3105"
           style="font-size:128.49867249px;font-family:Montserrat;-inkscape-font-specification:Montserrat"
           d="m 386.18782,420.34565 0,37.00762 -14.39185,0 0,-68.36129 14.39185,0 0,12.46437 c 2.31295,-4.19756 5.48258,-7.49569 9.5089,-9.8944 4.11192,-2.39857 8.5237,-3.59789 13.23536,-3.59796 7.70987,7e-5 13.92063,2.35587 18.63231,7.06743 4.79721,4.71167 7.19585,11.52209 7.19593,20.43128 l 0,41.89057 -14.39186,0 0,-37.52161 c -6e-5,-12.59282 -5.22566,-18.88925 -15.67683,-18.88931 -4.96866,6e-5 -9.29478,1.67054 -12.97837,5.01145 -3.68366,3.25535 -5.52547,8.05263 -5.52544,14.39185"
           inkscape:connector-curvature="0" />
        <path
           id="path3107"
           style="font-size:128.49867249px;font-family:Montserrat;-inkscape-font-specification:Montserrat"
           d="m 515.14285,457.35327 -13.10686,0 0,-9.1234 c -5.65399,6.76759 -13.23541,10.15139 -22.74427,10.15139 -7.11028,0 -13.02121,-2.01314 -17.73281,-6.03944 -4.62596,-4.02628 -6.93894,-9.38039 -6.93893,-16.06233 -10e-6,-6.76757 2.4843,-11.82185 7.45292,-15.16284 4.9686,-3.34093 11.69336,-5.01141 20.17429,-5.01145 l 18.63231,0 0,-2.56998 c -5e-5,-9.08052 -5.05433,-13.6208 -15.16284,-13.62086 -6.3393,6e-5 -12.93556,2.31304 -19.7888,6.93893 l -6.42493,-8.9949 c 8.30956,-6.5962 17.73279,-9.89433 28.2697,-9.8944 8.05254,7e-5 14.60597,2.05604 19.6603,6.16793 5.13989,4.02636 7.70986,10.40845 7.70992,19.14631 l 0,44.07504 m -14.39185,-25.44274 0,-5.78244 -16.19083,0 c -10.36559,4e-5 -15.54836,3.25533 -15.54834,9.7659 -2e-5,3.34099 1.28496,5.91096 3.85496,7.70992 2.56995,1.71333 6.12507,2.56999 10.66539,2.56998 4.62591,1e-5 8.6522,-1.28498 12.07887,-3.85496 3.42659,-2.56996 5.1399,-6.03942 5.13995,-10.4084"
           inkscape:connector-curvature="0" />
      </g>
    </g>
    <g
       transform="matrix(0.48443425,0,0,-0.48443425,76.105003,989.1349)"
       inkscape:label="vectorshirt_b_f"
       id="g10">
      <g
         transform="translate(65.213983,-43.114407)"
         id="g370">
        <g
           transform="translate(-67.2,3.2)"
           clip-path="url(#clipPath374)"
           id="g372">
          <g
             transform="translate(-259.03601,-166.57839)"
             id="g3048">
            <path
               inkscape:connector-curvature="0"
               id="path434"
               style="fill:#0057ff;fill-opacity:1;fill-rule:evenodd;stroke:none"
               d="m 327,727.3936 c -7.25,-13.5 -12.75,-36.25 -12.75,-39 -9.5,-16 -15,-38.75 -18.5,-47.75 -3.5,-9 -16,-54.25 -18,-60.25 35.5,-12 35.5,-18 60,-28.75 24.5,-10.75 41.375,-11.625 45.875,-10.25 -0.625,2.25 -0.625,4.75 0.25,5.25 0.875,0.5 2,0.125 2.375,-0.375 -0.125,-16.125 0.625,-39.25 0.75,-46.125 0.125,-6.875 0.75,-14.875 1.25,-19 0.75,-6.75 2.875,-12.875 2.625,-18.25 -0.25,-5.375 -2.125,-10.375 -3,-14.25 -0.875,-3.875 -3.25,-13.75 -3,-16.875 0.25,-4.625 3.625,-8.125 3.25,-11.5 -0.375,-3.375 -2.5,-5.75 -3.375,-8.875 -0.875,-3.125 -1,-10.375 -1.25,-16.125 -0.25,-5.75 -0.25,-8 0,-11.25 0.25,-3.25 1.75,-8.375 2.75,-10.125 -3.375,-8.5 -5,-12.875 -5.5,-14.5 -0.5,-1.625 -1.125,-14.875 -1.25,-18.5 -0.125,-3.625 -0.375,-11.875 -0.125,-13.125 1.25,-3.375 2.375,-4.625 3,-5.25 -3,-3.25 -5.125,-8.75 -5.5,-9.625 -0.375,-0.875 -2.875,-11.125 -3.625,-15.875 -1.125,-5.25 -1.375,-7.875 -1.375,-9.625 0,-1.75 0.75,-5 0.75,-6.375 0,-1.375 0.25,-3.25 0.125,-4.25 2.125,-6 5.25,-8 6.875,-9.75 1.625,-1.75 4.25,-4.125 6.25,-5.125 2,-1 10.125,-6 24,-9.5 0,0 21.875,-5.125 33.75,-6.75 11.875,-1.625 24.125,-4.5 32.125,-5.75 8,-1.25 17.125,-2.625 24.75,-3.25 7.625,-0.625 27.25,-1.75 38.625,-1.5 11.375,0.25 41.5,1.375 60,5 18.5,3.625 25,5.75 29,6.875 4,1.125 20.25,4.75 28.5,7 8.25,2.25 12.125,3.75 14.625,5.625 2.5,1.875 11,9.125 11.25,15.125 -0.625,5.875 -3.5,24 -4,29.75 -0.5,5.75 -1.75,32.875 -2.125,37.75 -1.125,8.125 -7.375,18.625 -7.5,23.375 -0.125,4.75 2.625,13.875 2.625,18.25 0,4.375 -0.375,27.375 0,32.625 0.375,5.25 0,15.375 -0.125,22 -0.125,6.625 -1.5,30 -2.25,38.5 -0.75,8.5 -2.375,30.375 -3.125,40.5 -0.75,10.125 -2.5,34.5 -3.25,41.375 -0.75,6.875 -0.625,13.125 -0.75,14.5 1.5,0.625 2.25,0.375 2.875,-0.125 l -0.125,-0.875 c 0,0 3,-0.125 13.25,3.375 10.25,3.5 32,10.75 46,17.5 14,6.75 39.25,19.125 40.875,20.25 -10.75,22.375 -20.5,47.5 -23.75,57.375 -3.25,9.875 -5.875,17 -7.625,21.5 -1.75,4.5 -11.875,26.25 -15.5,32.375 -3.625,6.125 -6.375,13.375 -8.875,16.75 -2.5,3.375 -10,14.125 -11,15 -0.5,0.375 -1.5,0 -3.125,0.5 -1.625,0.5 -7.875,3.25 -15.125,9.375 -7.25,6.125 -9.375,8.125 -9.75,8.5 -18.375,6.75 -31.375,10.875 -40.875,15 -9.5,4.125 -32,14.5 -35.125,16.125 -3,0.25 -3.5,-0.25 -5,0.375 -1.5,0.625 -1.25,1.625 -3,2.125 -1.75,0.5 -4,0 -5,0.625 -1,0.625 -5.318,5.343 -7.531,6.955 3.198,-5.959 1.531,-9.33 -0.344,-12.83 -1.875,-3.5 -10.125,-12 -25.125,-17.125 -15,-5.125 -32.125,-8.25 -46.5,-8.25 -14.375,0 -33.375,2.75 -44,10.75 -8.5,7.125 -8.5,11.25 -8.375,12.25 0.125,1 1.45,5.25 4.825,8.75 0,0 -1.575,0 -3.7,-1.75 -2.125,-1.75 -6.25,-6.375 -6.75,-7.5 -8.875,-2.75 -21,-8.625 -23.25,-9.625 -7.125,-6.125 -23.125,-14.875 -27.875,-17.5 -4.75,-2.625 -13.375,-8.625 -15.375,-9.875 -2,-1.25 -16.75,-11.625 -18.375,-12.75 -6.375,-7 -10.875,-10.25 -14.875,-13.625 -4,-3.375 -13.625,-9.75 -16.875,-9.625" />
            <path
               sodipodi:nodetypes="ccccccccccccc"
               inkscape:connector-curvature="0"
               id="path3006-3-9-2-3"
               d="m 480.88492,658.37347 10.63891,-18.23448 -52.63878,-91.17304 28.07401,0 38.60177,66.86023 38.49385,-66.86319 7.12963,0 -10.53096,18.23757 52.63878,91.17303 -28.07402,0 -38.60177,-66.86022 -38.60177,66.8601 z"
               style="fill:#bdbebd;fill-opacity:1;stroke:none;display:inline" />
          </g>
        </g>
      </g>
    </g>
    <path
       style="fill:none;stroke:#000000;stroke-width:0.70866144;stroke-linecap:butt;stroke-linejoin:miter;stroke-miterlimit:4;stroke-opacity:1;stroke-dasharray:none;marker-end:url(#Arrow1Lend)"
       d="m 547.06674,433.98688 -65.71648,0 -43.85992,65.95774 -134.94167,0"
       id="path3249"
       inkscape:connector-curvature="0"
       sodipodi:nodetypes="cccc" />
    <text
       xml:space="preserve"
       style="font-size:8px;font-style:normal;font-variant:normal;font-weight:normal;font-stretch:normal;text-align:start;line-height:110.00000238%;letter-spacing:2px;word-spacing:0px;writing-mode:lr-tb;text-anchor:start;fill:#000000;fill-opacity:1;stroke:none;font-family:Open Sans;-inkscape-font-specification:Open Sans"
       x="307.58777"
       y="337.02158"
       id="text4469"
       sodipodi:linespacing="110%"><tspan
         sodipodi:role="line"
         id="tspan4471"
         x="307.58777"
         y="337.02158"
         style="font-size:18px;font-style:italic;font-variant:normal;font-weight:normal;font-stretch:normal;font-family:Open Sans;-inkscape-font-specification:Open Sans Italic">Logo + name:</tspan></text>
    <text
       xml:space="preserve"
       style="font-size:8px;font-style:normal;font-variant:normal;font-weight:normal;font-stretch:normal;text-align:start;line-height:100.99999905%;letter-spacing:2px;word-spacing:0px;writing-mode:lr-tb;text-anchor:start;fill:#000000;fill-opacity:1;stroke:none;font-family:Open Sans;-inkscape-font-specification:Open Sans"
       x="487.29593"
       y="430.51709"
       id="text4486"
       sodipodi:linespacing="101%"><tspan
         sodipodi:role="line"
         id="tspan4488"
         x="487.29593"
         y="430.51709"
         style="font-size:11px;font-style:italic;font-weight:normal;line-height:115.99999666%;-inkscape-font-specification:Open Sans Italic">Typeface:</tspan><tspan
         sodipodi:role="line"
         x="487.29593"
         y="443.2771"
         style="font-size:12px;font-style:italic;font-weight:normal;line-height:115.99999666%;-inkscape-font-specification:Open Sans Italic"
         id="tspan4506" /><tspan
         sodipodi:role="line"
         x="487.29593"
         y="458.76843"
         style="font-size:14px;line-height:115.99999666%"
         id="tspan4498"><tspan
   style="font-size:14px;font-weight:bold;line-height:115.99999666%;-inkscape-font-specification:Open Sans Bold"
   id="tspan4500">Montserrat</tspan> regular </tspan><tspan
         sodipodi:role="line"
         x="487.29593"
         y="473.3602"
         id="tspan4490"
         style="font-size:14px;line-height:100.99999905%">by <tspan
   style="font-size:14px;font-style:italic;font-weight:normal;line-height:100.99999905%;-inkscape-font-specification:Open Sans Italic"
   id="tspan4496">Julieta Ulanovsky</tspan></tspan><tspan
         sodipodi:role="line"
         x="487.29593"
         y="487.50021"
         style="font-size:11px;line-height:100.99999905%"
         id="tspan4504" /><tspan
         sodipodi:role="line"
         x="487.29593"
         y="499.26205"
         style="font-size:11px;line-height:100.99999905%"
         id="tspan4510">SIL Open Font License</tspan></text>
    <image
       y="794.5473"
       x="380.08929"
       id="image4574"
       xlink:href="file:///media/DATA/Doc/novena/inspiration/novena-double.png"
       height="207.33441"
       width="285.83386" />
    <text
       xml:space="preserve"
       style="font-size:8px;font-style:normal;font-variant:normal;font-weight:normal;font-stretch:normal;text-align:start;line-height:110.00000238%;letter-spacing:2px;word-spacing:0px;writing-mode:lr-tb;text-anchor:start;fill:#000000;fill-opacity:1;stroke:none;font-family:Open Sans;-inkscape-font-specification:Open Sans"
       x="348.66296"
       y="643.02161"
       id="text4469-1"
       sodipodi:linespacing="110%"><tspan
         sodipodi:role="line"
         id="tspan4471-1"
         x="348.66296"
         y="643.02161"
         style="font-size:18px;font-style:italic;font-variant:normal;font-weight:normal;font-stretch:normal;font-family:Open Sans;-inkscape-font-specification:Open Sans Italic">Misc.:</tspan></text>
    <text
       xml:space="preserve"
       style="font-size:8px;font-style:normal;font-variant:normal;font-weight:normal;font-stretch:normal;text-align:start;line-height:110.00000238%;letter-spacing:2px;word-spacing:0px;writing-mode:lr-tb;text-anchor:start;fill:#000000;fill-opacity:1;stroke:none;font-family:Open Sans;-inkscape-font-specification:Open Sans"
       x="236.26208"
       y="1030.5608"
       id="text4636"
       sodipodi:linespacing="110%"><tspan
         sodipodi:role="line"
         id="tspan4638"
         x="236.26208"
         y="1030.5608">A logo proposal by <tspan
   style="font-weight:bold;-inkscape-font-specification:Open Sans Bold"
   id="tspan4640">Julien Deswaef</tspan> http://xuv.be</tspan></text>
  </g>
</svg>
