<?xml version="1.0" encoding="UTF-8" standalone="no"?>
<!-- Created with Inkscape (http://www.inkscape.org/) -->

<svg
   xmlns:dc="http://purl.org/dc/elements/1.1/"
   xmlns:cc="http://creativecommons.org/ns#"
   xmlns:rdf="http://www.w3.org/1999/02/22-rdf-syntax-ns#"
   xmlns:svg="http://www.w3.org/2000/svg"
   xmlns="http://www.w3.org/2000/svg"
   xmlns:sodipodi="http://sodipodi.sourceforge.net/DTD/sodipodi-0.dtd"
   xmlns:inkscape="http://www.inkscape.org/namespaces/inkscape"
   id="svg2"
   version="1.1"
   inkscape:version="0.48.3.1 r9886"
   width="650"
   height="800"
   xml:space="preserve"
   sodipodi:docname="novena-shirt.svg"><metadata
     id="metadata8"><rdf:RDF><cc:Work
         rdf:about=""><dc:format>image/svg+xml</dc:format><dc:type
           rdf:resource="http://purl.org/dc/dcmitype/StillImage" /><dc:title /></cc:Work></rdf:RDF></metadata><defs
     id="defs6" /><sodipodi:namedview
     pagecolor="#ffffff"
     bordercolor="#666666"
     borderopacity="1"
     objecttolerance="10"
     gridtolerance="10"
     guidetolerance="10"
     inkscape:pageopacity="0"
     inkscape:pageshadow="2"
     inkscape:window-width="1280"
     inkscape:window-height="751"
     id="namedview4"
     showgrid="false"
     inkscape:zoom="0.40821622"
     inkscape:cx="12.692014"
     inkscape:cy="559.9665"
     inkscape:window-x="0"
     inkscape:window-y="29"
     inkscape:window-maximized="1"
     inkscape:current-layer="g3048" /><g
     id="g10"
     inkscape:groupmode="layer"
     inkscape:label="vectorshirt_b_f"
     transform="matrix(1.25,0,0,-1.25,0,800)"><g
       id="g370"
       transform="translate(65.213983,-43.114407)"><g
         id="g372"
         clip-path="url(#clipPath374)"
         transform="translate(-67.2,3.2)"><g
           id="g3048"
           transform="translate(-259.03601,-166.57839)"><path
             d="m 327,727.3936 c -7.25,-13.5 -12.75,-36.25 -12.75,-39 -9.5,-16 -15,-38.75 -18.5,-47.75 -3.5,-9 -16,-54.25 -18,-60.25 35.5,-12 35.5,-18 60,-28.75 24.5,-10.75 41.375,-11.625 45.875,-10.25 -0.625,2.25 -0.625,4.75 0.25,5.25 0.875,0.5 2,0.125 2.375,-0.375 -0.125,-16.125 0.625,-39.25 0.75,-46.125 0.125,-6.875 0.75,-14.875 1.25,-19 0.75,-6.75 2.875,-12.875 2.625,-18.25 -0.25,-5.375 -2.125,-10.375 -3,-14.25 -0.875,-3.875 -3.25,-13.75 -3,-16.875 0.25,-4.625 3.625,-8.125 3.25,-11.5 -0.375,-3.375 -2.5,-5.75 -3.375,-8.875 -0.875,-3.125 -1,-10.375 -1.25,-16.125 -0.25,-5.75 -0.25,-8 0,-11.25 0.25,-3.25 1.75,-8.375 2.75,-10.125 -3.375,-8.5 -5,-12.875 -5.5,-14.5 -0.5,-1.625 -1.125,-14.875 -1.25,-18.5 -0.125,-3.625 -0.375,-11.875 -0.125,-13.125 1.25,-3.375 2.375,-4.625 3,-5.25 -3,-3.25 -5.125,-8.75 -5.5,-9.625 -0.375,-0.875 -2.875,-11.125 -3.625,-15.875 -1.125,-5.25 -1.375,-7.875 -1.375,-9.625 0,-1.75 0.75,-5 0.75,-6.375 0,-1.375 0.25,-3.25 0.125,-4.25 2.125,-6 5.25,-8 6.875,-9.75 1.625,-1.75 4.25,-4.125 6.25,-5.125 2,-1 10.125,-6 24,-9.5 0,0 21.875,-5.125 33.75,-6.75 11.875,-1.625 24.125,-4.5 32.125,-5.75 8,-1.25 17.125,-2.625 24.75,-3.25 7.625,-0.625 27.25,-1.75 38.625,-1.5 11.375,0.25 41.5,1.375 60,5 18.5,3.625 25,5.75 29,6.875 4,1.125 20.25,4.75 28.5,7 8.25,2.25 12.125,3.75 14.625,5.625 2.5,1.875 11,9.125 11.25,15.125 -0.625,5.875 -3.5,24 -4,29.75 -0.5,5.75 -1.75,32.875 -2.125,37.75 -1.125,8.125 -7.375,18.625 -7.5,23.375 -0.125,4.75 2.625,13.875 2.625,18.25 0,4.375 -0.375,27.375 0,32.625 0.375,5.25 0,15.375 -0.125,22 -0.125,6.625 -1.5,30 -2.25,38.5 -0.75,8.5 -2.375,30.375 -3.125,40.5 -0.75,10.125 -2.5,34.5 -3.25,41.375 -0.75,6.875 -0.625,13.125 -0.75,14.5 1.5,0.625 2.25,0.375 2.875,-0.125 l -0.125,-0.875 c 0,0 3,-0.125 13.25,3.375 10.25,3.5 32,10.75 46,17.5 14,6.75 39.25,19.125 40.875,20.25 -10.75,22.375 -20.5,47.5 -23.75,57.375 -3.25,9.875 -5.875,17 -7.625,21.5 -1.75,4.5 -11.875,26.25 -15.5,32.375 -3.625,6.125 -6.375,13.375 -8.875,16.75 -2.5,3.375 -10,14.125 -11,15 -0.5,0.375 -1.5,0 -3.125,0.5 -1.625,0.5 -7.875,3.25 -15.125,9.375 -7.25,6.125 -9.375,8.125 -9.75,8.5 -18.375,6.75 -31.375,10.875 -40.875,15 -9.5,4.125 -32,14.5 -35.125,16.125 -3,0.25 -3.5,-0.25 -5,0.375 -1.5,0.625 -1.25,1.625 -3,2.125 -1.75,0.5 -4,0 -5,0.625 -1,0.625 -5.318,5.343 -7.531,6.955 3.198,-5.959 1.531,-9.33 -0.344,-12.83 -1.875,-3.5 -10.125,-12 -25.125,-17.125 -15,-5.125 -32.125,-8.25 -46.5,-8.25 -14.375,0 -33.375,2.75 -44,10.75 -8.5,7.125 -8.5,11.25 -8.375,12.25 0.125,1 1.45,5.25 4.825,8.75 0,0 -1.575,0 -3.7,-1.75 -2.125,-1.75 -6.25,-6.375 -6.75,-7.5 -8.875,-2.75 -21,-8.625 -23.25,-9.625 -7.125,-6.125 -23.125,-14.875 -27.875,-17.5 -4.75,-2.625 -13.375,-8.625 -15.375,-9.875 -2,-1.25 -16.75,-11.625 -18.375,-12.75 -6.375,-7 -10.875,-10.25 -14.875,-13.625 -4,-3.375 -13.625,-9.75 -16.875,-9.625"
             style="fill:#0057ff;fill-opacity:1;fill-rule:evenodd;stroke:none"
             id="path434"
             inkscape:connector-curvature="0" /><path
             style="fill:#bdbebd;fill-opacity:1;stroke:none;display:inline"
             d="m 480.88492,658.37347 10.63891,-18.23448 -52.63878,-91.17304 28.07401,0 38.60177,66.86023 38.49385,-66.86319 7.12963,0 -10.53096,18.23757 52.63878,91.17303 -28.07402,0 -38.60177,-66.86022 -38.60177,66.8601 z"
             id="path3006-3-9-2"
             inkscape:connector-curvature="0"
             sodipodi:nodetypes="ccccccccccccc" /></g></g></g></g></svg>